<?xml version="1.0" standalone="no"?>
<!DOCTYPE svg PUBLIC "-//W3C//DTD SVG 20010904//EN"
 "http://www.w3.org/TR/2001/REC-SVG-20010904/DTD/svg10.dtd">
<svg version="1.0" xmlns="http://www.w3.org/2000/svg"
 width="129.000000pt" height="129.000000pt" viewBox="0 0 129.000000 129.000000"
 preserveAspectRatio="xMidYMid meet">
<metadata>
Created by potrace 1.14, written by Peter Selinger 2001-2017
</metadata>
<g transform="translate(0.000000,129.000000) scale(0.100000,-0.100000)"
fill="#000000" stroke="none">
<path d="M511 1035 c-159 -36 -259 -128 -310 -286 -48 -149 -19 -340 65 -423
66 -65 158 -89 339 -89 291 0 432 92 500 328 22 74 16 226 -11 300 -26 69 -86
127 -159 155 -51 19 -83 24 -210 26 -106 3 -169 -1 -214 -11z m454 -121 c23
-9 45 -58 45 -101 -2 -122 -101 -227 -315 -332 -113 -55 -278 -111 -329 -111
-93 0 -104 145 -21 254 75 99 302 222 510 276 80 21 87 22 110 14z"/>
</g>
</svg>
